<svg width="50" height="50" viewBox="0 0 50 50" fill="none" xmlns="http://www.w3.org/2000/svg">
<g clip-path="url(#clip0_507_1186)">
<path d="M48.4883 12.6807C47.1768 7.84863 42.1514 2.82422 37.3193 1.51172C34.3564 0.773437 30.3877 0.0126953 25 0C19.6123 0.0136719 15.6436 0.773437 12.6807 1.5127C7.84961 2.82422 2.82422 7.84863 1.51172 12.6807C0.773437 15.6436 0.0126953 19.6123 0 25C0.0136719 30.3877 0.773437 34.3564 1.5127 37.3193C2.8252 42.1514 7.84961 47.1758 12.6816 48.4883C15.6445 49.2275 19.6133 49.9873 25.001 50.001C30.3877 49.9873 34.3574 49.2275 37.3203 48.4883C42.1523 47.1758 47.1768 42.1514 48.4893 37.3193C49.2285 34.3574 49.9883 30.3877 50.002 25C49.9883 19.6123 49.2285 15.6436 48.4893 12.6807H48.4883Z" fill="#7D0101" fill-opacity="0.1"/>
<path d="M43.4258 35.7627C42.3965 34.0459 38.4541 32.2598 34.6641 31.7939C32.3398 31.5312 29.2266 31.2607 25 31.2568C20.7734 31.2617 17.6592 31.5312 15.3359 31.7939C11.5459 32.2607 7.60352 34.0459 6.57422 35.7627C5.99414 36.8154 5.39844 38.2256 5.3877 40.1406C5.39844 42.0547 5.99414 43.4658 6.57422 44.5186C7.60352 46.2354 11.5459 48.0215 15.3359 48.4873C17.6602 48.75 20.7744 49.0205 25 49.0244C29.2266 49.0195 32.3398 48.749 34.6641 48.4873C38.4551 48.0215 42.3965 46.2354 43.4258 44.5186C44.0049 43.4658 44.6016 42.0557 44.6123 40.1406C44.6016 38.2266 44.0049 36.8154 43.4258 35.7627Z" fill="url(#paint0_radial_507_1186)"/>
<path d="M30.1031 19.8077C28.4537 19.7138 26.432 19.666 24.4992 19.666C22.5664 19.666 20.5447 19.7138 18.8953 19.8077C18.8953 19.8077 17.9602 19.8208 16.4053 20.0596C15.4277 20.2869 14.5237 20.7958 13.8111 21.5287C12.9496 22.4148 12.4059 23.5891 12.2794 24.8358L12.2754 24.8737C12.1217 26.3947 12 25.9879 12 29.1962C12 32.4044 12.1217 32.271 12.2754 33.792L12.2794 33.8299C12.4059 35.0766 12.9496 36.2509 13.8111 37.137C14.6726 38.0231 15.8144 38.5822 17.0266 38.7123C18.8081 38.9034 21.7441 38.9997 24.5 38.9997C27.2559 38.9997 30.1919 38.9034 31.9734 38.7123C33.1856 38.5822 34.3274 38.0231 35.1889 37.137C36.0504 36.2509 36.5941 35.0766 36.7206 33.8299L36.7246 33.7912C36.8783 32.2702 37 32.4036 37 29.1953C37 25.9871 36.8783 26.3947 36.7246 24.8737L36.7206 24.835C36.5941 23.5883 36.0504 22.414 35.1889 21.5279C34.4763 20.795 33.5715 20.2861 32.5947 20.0588C31.5178 19.8809 30.1047 19.8068 30.1047 19.8068L30.1031 19.8077Z" fill="url(#paint1_linear_507_1186)"/>
<path d="M32.5996 20.0599C32.5804 18.3002 32.5116 16.71 32.4075 15.6798C32.2922 14.5369 31.7934 13.4597 31.0031 12.6478C30.2136 11.8358 29.1664 11.3228 28.0566 11.2034L28.0294 11.2001C27.8741 11.1836 27.7356 11.1672 27.6035 11.1523C26.8645 11.0667 26.2808 11 24.4144 11C22.5481 11 22.1533 11.0593 21.488 11.1416C21.3367 11.1606 21.1749 11.1803 20.9788 11.2009L20.9547 11.2034C19.8434 11.3228 18.7961 11.835 18.0067 12.6478C17.2172 13.4597 16.7184 14.5369 16.6023 15.6798C16.4982 16.71 16.4294 18.3002 16.4102 20.0599L18.9002 19.808C18.9226 18.2483 18.9859 16.8335 19.0756 15.945C19.1324 15.3842 19.3774 14.8555 19.7649 14.4561C20.1525 14.0576 20.6665 13.8056 21.2142 13.7471L21.2382 13.7447C21.4471 13.7224 21.6217 13.701 21.7842 13.6804C22.3855 13.6063 22.7827 13.5577 24.4144 13.5577C26.1423 13.5577 26.613 13.6121 27.3264 13.6944C27.465 13.7101 27.6099 13.7274 27.7708 13.7447L27.798 13.748C28.3433 13.8064 28.8573 14.0584 29.2448 14.457C29.6324 14.8555 29.8774 15.3842 29.9342 15.945C30.0239 16.8335 30.0871 18.2483 30.1096 19.808L32.5996 20.0599Z" fill="url(#paint2_linear_507_1186)"/>
<path d="M25.796 30.3289V32.8759C25.796 33.5932 25.2307 34.1754 24.5333 34.1754C23.8359 34.1754 23.2699 33.594 23.2699 32.8767V30.3659C22.3595 29.9007 21.7334 28.9347 21.7334 27.8189C21.7334 26.2485 22.9712 24.9746 24.4981 24.9746C26.025 24.9746 27.2636 26.2477 27.2636 27.8181C27.2636 28.9067 26.6687 29.8513 25.796 30.3297V30.3289Z" fill="url(#paint3_linear_507_1186)"/>
</g>
<defs>
<radialGradient id="paint0_radial_507_1186" cx="0" cy="0" r="1" gradientUnits="userSpaceOnUse" gradientTransform="translate(25 42.2223) scale(19.6123 8.82554)">
<stop stop-color="#7D0101" stop-opacity="0.6"/>
<stop offset="1" stop-color="#7D0101" stop-opacity="0"/>
</radialGradient>
<linearGradient id="paint1_linear_507_1186" x1="33.638" y1="38.7312" x2="14.847" y2="20.4617" gradientUnits="userSpaceOnUse">
<stop stop-color="#7D0101"/>
<stop offset="0.54" stop-color="#7D0101"/>
<stop offset="1" stop-color="#7D0101"/>
</linearGradient>
<linearGradient id="paint2_linear_507_1186" x1="29.9542" y1="22.7799" x2="18.7486" y2="11.8847" gradientUnits="userSpaceOnUse">
<stop stop-color="#34344F"/>
<stop offset="0.54" stop-color="#353551"/>
<stop offset="1" stop-color="#666684"/>
</linearGradient>
<linearGradient id="paint3_linear_507_1186" x1="27.1787" y1="31.9923" x2="21.7039" y2="26.6692" gradientUnits="userSpaceOnUse">
<stop stop-color="#FFDDCE"/>
<stop offset="0.57" stop-color="white"/>
<stop offset="1" stop-color="white"/>
</linearGradient>
<clipPath id="clip0_507_1186">
<rect width="50" height="50" fill="white"/>
</clipPath>
</defs>
</svg>
