<svg width="10" height="12" viewBox="0 0 10 12" fill="none" xmlns="http://www.w3.org/2000/svg">
<path d="M3.99463 9.35163C2.94741 9.35163 2.09529 8.49951 2.09529 7.45229V2.87122H1.31289C0.635081 2.87122 0.0839844 3.42231 0.0839844 4.10012V10.134C0.0839844 10.8118 0.635081 11.3629 1.31289 11.3629H6.89962C7.57743 11.3629 8.12852 10.8118 8.12852 10.134V9.35163H3.99463Z" fill="white"/>
<path d="M3.99453 0.637024C3.31538 0.637024 2.76562 1.18745 2.76562 1.86593V7.45266C2.76562 8.1318 3.31605 8.68156 3.99453 8.68156H8.68757C9.36672 8.68156 9.91647 8.13113 9.91647 7.45266V1.97789C9.91647 1.23706 9.31644 0.637024 8.57561 0.637024H3.99453Z" fill="white"/>
</svg>

