<svg width="140" height="39" viewBox="0 0 140 39" fill="none" xmlns="http://www.w3.org/2000/svg">
<path d="M48.2246 6.95523C-2.77035 5.57496 -12.6963 40.2972 52.4403 35.7716C19.8288 43.4669 -1.82988 33.6749 0.121921 20.8515C7.98486 -6.01459 70.8884 -1.84572 73.6636 5.56561C53.7749 12.0505 40.4403 12.8175 40.3617 18.0722V25.9468L33.3571 33.3571L34.3488 25.0204C33.5234 20.71 34.3488 14.8298 34.3488 14.8298C34.3488 14.8298 41.1895 8.50576 48.2246 6.95523Z" fill="#7D0101"/>
<path d="M51.3313 30.5774V28.865H55.0089C56.1245 28.865 57.078 28.638 57.8693 28.184C58.6735 27.73 59.2897 27.1008 59.7178 26.2965C60.1459 25.4923 60.3599 24.5583 60.3599 23.4945C60.3599 22.4438 60.1459 21.5293 59.7178 20.7509C59.3027 19.9726 58.693 19.3694 57.8887 18.9413C57.0974 18.5002 56.1375 18.2797 55.0089 18.2797H51.3507V16.5674H55.0089C56.5137 16.5674 57.8239 16.8528 58.9395 17.4235C60.0551 17.9943 60.9177 18.8051 61.5274 19.8558C62.1501 20.8936 62.4614 22.1195 62.4614 23.5335C62.4614 24.9474 62.1501 26.1863 61.5274 27.25C60.9048 28.3007 60.0356 29.118 58.92 29.7017C57.8174 30.2855 56.5201 30.5774 55.0283 30.5774H51.3313ZM50.0859 30.5774V16.5674H52.1485V30.5774H50.0859Z" fill="#272727"/>
<path d="M70.714 30.5774C70.6492 30.3309 70.6038 30.0585 70.5778 29.7601C70.5648 29.4618 70.5584 29.0985 70.5584 28.6704H70.4611V23.9421C70.4611 23.3064 70.2989 22.833 69.9746 22.5216C69.6633 22.1973 69.1638 22.0352 68.4763 22.0352C67.8147 22.0352 67.2829 22.1649 66.8807 22.4243C66.4916 22.6838 66.2646 23.0535 66.1997 23.5335H64.2733C64.3641 22.5995 64.7857 21.8536 65.5381 21.2958C66.2905 20.7379 67.2958 20.459 68.5541 20.459C69.8514 20.459 70.8243 20.7639 71.4729 21.3736C72.1215 21.9703 72.4458 22.8524 72.4458 24.0199V28.6704C72.4458 28.9688 72.4653 29.2737 72.5042 29.585C72.5431 29.8963 72.6015 30.2271 72.6793 30.5774H70.714ZM67.2894 30.7719C66.2775 30.7719 65.4732 30.5255 64.8765 30.0325C64.2798 29.5266 63.9814 28.8456 63.9814 27.9894C63.9814 27.1073 64.2928 26.4133 64.9154 25.9074C65.5511 25.3885 66.4591 25.0382 67.6396 24.8566L70.9086 24.3312V25.7517L67.9509 26.2187C67.2894 26.3225 66.7899 26.4976 66.4527 26.7441C66.1283 26.9905 65.9662 27.3473 65.9662 27.8143C65.9662 28.2683 66.1154 28.6121 66.4137 28.8456C66.7251 29.0661 67.1726 29.1764 67.7564 29.1764C68.5347 29.1764 69.1768 28.9883 69.6827 28.6121C70.2016 28.2359 70.4611 27.7624 70.4611 27.1916L70.714 28.6315C70.4805 29.3191 70.0654 29.8509 69.4687 30.2271C68.872 30.5903 68.1455 30.7719 67.2894 30.7719Z" fill="#272727"/>
<path d="M75.1875 30.5774V20.6536H77.1138V23.1248H77.2111V30.5774H75.1875ZM77.2111 25.4015L76.9582 23.047C77.1917 22.2038 77.5938 21.5617 78.1646 21.1206C78.7353 20.6796 79.4164 20.459 80.2077 20.459C80.5061 20.459 80.7136 20.485 80.8304 20.5369V22.4438C80.7655 22.4178 80.6747 22.4049 80.5579 22.4049C80.4412 22.3919 80.2985 22.3854 80.1299 22.3854C79.1569 22.3854 78.424 22.6384 77.9311 23.1443C77.4511 23.6502 77.2111 24.4026 77.2111 25.4015Z" fill="#272727"/>
<path d="M87.0868 30.7719C85.9323 30.7719 85.0826 30.506 84.5378 29.9742C84.0059 29.4293 83.74 28.6315 83.74 27.5808V18.377L85.7442 17.6181V27.6002C85.7442 28.1191 85.8804 28.5018 86.1528 28.7483C86.4252 28.9948 86.8663 29.118 87.476 29.118C87.7095 29.118 87.917 29.0985 88.0986 29.0596C88.2803 29.0207 88.4359 28.9753 88.5656 28.9234V30.5579C88.423 30.6228 88.2219 30.6747 87.9624 30.7136C87.703 30.7525 87.4111 30.7719 87.0868 30.7719ZM81.7552 22.2687V20.6536H88.5656V22.2687H81.7552Z" fill="#272727"/>
<path d="M92.5274 30.5774L89.4919 20.6536H91.5739L93.6365 28.6315H93.3446L95.8548 20.6536H97.606L100.116 28.6315H99.8437L101.887 20.6536H103.872L100.836 30.5774H99.0654L96.5553 22.7357H96.8471L94.2981 30.5774H92.5274Z" fill="#272727"/>
<path d="M109.835 30.7719C108.823 30.7719 107.934 30.5514 107.169 30.1104C106.404 29.6563 105.807 29.0402 105.379 28.2618C104.951 27.4705 104.737 26.5754 104.737 25.5766C104.737 24.5647 104.951 23.6762 105.379 22.9108C105.82 22.1454 106.417 21.5487 107.169 21.1206C107.934 20.6796 108.823 20.459 109.835 20.459C110.86 20.459 111.755 20.6796 112.52 21.1206C113.285 21.5487 113.876 22.1454 114.291 22.9108C114.719 23.6762 114.933 24.5647 114.933 25.5766C114.933 26.5754 114.719 27.4705 114.291 28.2618C113.876 29.0402 113.285 29.6563 112.52 30.1104C111.755 30.5514 110.86 30.7719 109.835 30.7719ZM109.835 29.118C110.444 29.118 110.97 28.9688 111.411 28.6704C111.865 28.3721 112.222 27.957 112.481 27.4251C112.741 26.8933 112.87 26.2706 112.87 25.5571C112.87 24.4934 112.585 23.6567 112.014 23.047C111.456 22.4243 110.73 22.113 109.835 22.113C108.953 22.113 108.226 22.4243 107.655 23.047C107.098 23.6697 106.819 24.5064 106.819 25.5571C106.819 26.2706 106.942 26.8933 107.188 27.4251C107.448 27.957 107.805 28.3721 108.259 28.6704C108.726 28.9688 109.251 29.118 109.835 29.118Z" fill="#272727"/>
<path d="M121.331 30.7719C120.319 30.7719 119.431 30.5514 118.665 30.1104C117.9 29.6563 117.303 29.0402 116.875 28.2618C116.447 27.4705 116.233 26.5754 116.233 25.5766C116.233 24.5647 116.447 23.6762 116.875 22.9108C117.316 22.1454 117.913 21.5487 118.665 21.1206C119.431 20.6796 120.319 20.459 121.331 20.459C122.356 20.459 123.251 20.6796 124.016 21.1206C124.782 21.5487 125.372 22.1454 125.787 22.9108C126.215 23.6762 126.429 24.5647 126.429 25.5766C126.429 26.5754 126.215 27.4705 125.787 28.2618C125.372 29.0402 124.782 29.6563 124.016 30.1104C123.251 30.5514 122.356 30.7719 121.331 30.7719ZM121.331 29.118C121.941 29.118 122.466 28.9688 122.907 28.6704C123.361 28.3721 123.718 27.957 123.977 27.4251C124.237 26.8933 124.367 26.2706 124.367 25.5571C124.367 24.4934 124.081 23.6567 123.51 23.047C122.953 22.4243 122.226 22.113 121.331 22.113C120.449 22.113 119.723 22.4243 119.152 23.047C118.594 23.6697 118.315 24.5064 118.315 25.5571C118.315 26.2706 118.438 26.8933 118.685 27.4251C118.944 27.957 119.301 28.3721 119.755 28.6704C120.222 28.9688 120.747 29.118 121.331 29.118Z" fill="#272727"/>
<path d="M135.725 30.5774V28.3007L135.92 28.3591C135.712 29.0985 135.284 29.6888 134.636 30.1298C133.987 30.5579 133.209 30.7719 132.301 30.7719C131.406 30.7719 130.621 30.5579 129.946 30.1298C129.285 29.7017 128.766 29.105 128.39 28.3397C128.026 27.5743 127.845 26.6792 127.845 25.6544C127.845 24.6166 128.033 23.7086 128.409 22.9302C128.785 22.1519 129.311 21.5487 129.985 21.1206C130.66 20.6925 131.451 20.4785 132.359 20.4785C133.306 20.4785 134.084 20.7055 134.694 21.1595C135.317 21.6006 135.725 22.2233 135.92 23.0275L135.648 23.0665V16.5674H137.652V30.5774H135.725ZM132.807 29.0791C133.702 29.0791 134.409 28.7742 134.928 28.1645C135.447 27.5419 135.706 26.6857 135.706 25.596C135.706 24.5323 135.44 23.6956 134.908 23.0859C134.389 22.4632 133.682 22.1519 132.787 22.1519C131.905 22.1519 131.205 22.4632 130.686 23.0859C130.18 23.6956 129.927 24.5518 129.927 25.6544C129.927 26.7311 130.18 27.5743 130.686 28.184C131.205 28.7807 131.912 29.0791 132.807 29.0791Z" fill="#272727"/>
<path d="M84.024 39C83.3958 39 82.8537 38.8749 82.3978 38.6248C81.942 38.369 81.5889 38.0132 81.3388 37.5573C81.0941 37.1015 80.9718 36.565 80.9718 35.9479C80.9718 35.3363 81.0941 34.797 81.3388 34.33C81.5889 33.8575 81.9336 33.4905 82.3728 33.2292C82.812 32.9624 83.3179 32.829 83.8906 32.829C84.3465 32.829 84.7579 32.9151 85.1248 33.0875C85.4973 33.2543 85.8003 33.4878 86.0338 33.788C86.2728 34.0882 86.4146 34.4357 86.4591 34.8304H85.5751C85.5195 34.4468 85.3416 34.1438 85.0414 33.9214C84.7412 33.6935 84.3659 33.5795 83.9156 33.5795C83.5042 33.5795 83.1456 33.6768 82.8398 33.8714C82.534 34.066 82.295 34.3384 82.1226 34.6886C81.9559 35.0389 81.8725 35.4531 81.8725 35.9312C81.8725 36.4149 81.9586 36.8318 82.131 37.1821C82.3033 37.5268 82.5535 37.7936 82.8815 37.9826C83.2151 38.1661 83.6154 38.2578 84.0824 38.2578C84.4159 38.2578 84.7106 38.2106 84.9663 38.1161C85.2221 38.0216 85.4445 37.8826 85.6335 37.6991L86.4924 38.0243C86.1811 38.3468 85.8225 38.5914 85.4167 38.7582C85.0108 38.9194 84.5466 39 84.024 39ZM85.6085 38.0243V36.1814L85.867 36.4399H84.074V35.706H86.4924V38.0243H85.6085Z" fill="#272727"/>
<path d="M87.5905 38.9166V32.9124H88.4578V38.9166H87.5905Z" fill="#272727"/>
<path d="M91.5266 39C91.093 39 90.7121 38.9055 90.3841 38.7165C90.0561 38.5219 89.8004 38.2578 89.6169 37.9243C89.4334 37.5851 89.3417 37.2015 89.3417 36.7734C89.3417 36.3398 89.4334 35.959 89.6169 35.631C89.8059 35.3029 90.0617 35.0472 90.3841 34.8637C90.7121 34.6747 91.093 34.5802 91.5266 34.5802C91.9658 34.5802 92.3494 34.6747 92.6774 34.8637C93.0054 35.0472 93.2584 35.3029 93.4363 35.631C93.6198 35.959 93.7115 36.3398 93.7115 36.7734C93.7115 37.2015 93.6198 37.5851 93.4363 37.9243C93.2584 38.2578 93.0054 38.5219 92.6774 38.7165C92.3494 38.9055 91.9658 39 91.5266 39ZM91.5266 38.2912C91.7879 38.2912 92.0131 38.2273 92.2021 38.0994C92.3967 37.9715 92.5496 37.7936 92.6607 37.5657C92.7719 37.3377 92.8275 37.0709 92.8275 36.7651C92.8275 36.3092 92.7052 35.9506 92.4606 35.6893C92.2215 35.4225 91.9102 35.2891 91.5266 35.2891C91.1486 35.2891 90.8372 35.4225 90.5926 35.6893C90.3535 35.9562 90.234 36.3148 90.234 36.7651C90.234 37.0709 90.2868 37.3377 90.3925 37.5657C90.5037 37.7936 90.6565 37.9715 90.8511 38.0994C91.0513 38.2273 91.2764 38.2912 91.5266 38.2912Z" fill="#272727"/>
<path d="M96.8706 38.9917C96.4703 38.9917 96.1367 38.8972 95.8699 38.7082C95.603 38.5136 95.4279 38.2439 95.3445 37.8992L95.4279 37.8826V38.9166H94.6023V32.9124H95.4696V35.6393L95.3778 35.6143C95.4724 35.2918 95.6558 35.0389 95.9282 34.8554C96.2062 34.6719 96.5398 34.5802 96.929 34.5802C97.3126 34.5802 97.6434 34.6719 97.9213 34.8554C98.2049 35.0389 98.4217 35.2946 98.5718 35.6226C98.7275 35.9506 98.8053 36.3342 98.8053 36.7734C98.8053 37.2182 98.7247 37.6074 98.5634 37.9409C98.4022 38.2745 98.1771 38.533 97.888 38.7165C97.5989 38.9 97.2597 38.9917 96.8706 38.9917ZM96.6871 38.2745C97.0652 38.2745 97.3654 38.1411 97.5878 37.8742C97.8101 37.6074 97.9213 37.2404 97.9213 36.7734C97.9213 36.312 97.8101 35.9534 97.5878 35.6977C97.3654 35.4364 97.0624 35.3057 96.6788 35.3057C96.3007 35.3057 95.9977 35.4392 95.7698 35.706C95.5474 35.9673 95.4362 36.3315 95.4362 36.7985C95.4362 37.2543 95.5474 37.6157 95.7698 37.8826C95.9977 38.1439 96.3035 38.2745 96.6871 38.2745Z" fill="#272727"/>
<path d="M102.36 38.9166C102.332 38.811 102.313 38.6943 102.302 38.5664C102.296 38.4385 102.293 38.2829 102.293 38.0994H102.252V36.0729C102.252 35.8005 102.182 35.5976 102.043 35.4642C101.91 35.3252 101.696 35.2557 101.401 35.2557C101.117 35.2557 100.889 35.3113 100.717 35.4225C100.55 35.5337 100.453 35.6921 100.425 35.8978H99.5997C99.6386 35.4975 99.8193 35.1779 100.142 34.9388C100.464 34.6997 100.895 34.5802 101.434 34.5802C101.99 34.5802 102.407 34.7109 102.685 34.9722C102.963 35.2279 103.102 35.6059 103.102 36.1063V38.0994C103.102 38.2273 103.111 38.3579 103.127 38.4913C103.144 38.6248 103.169 38.7665 103.202 38.9166H102.36ZM100.892 39C100.459 39 100.114 38.8944 99.8582 38.6831C99.6025 38.4663 99.4746 38.1744 99.4746 37.8075C99.4746 37.4295 99.608 37.132 99.8749 36.9152C100.147 36.6928 100.536 36.5427 101.042 36.4649L102.443 36.2397V36.8485L101.176 37.0486C100.892 37.0931 100.678 37.1682 100.534 37.2738C100.395 37.3794 100.325 37.5323 100.325 37.7325C100.325 37.927 100.389 38.0744 100.517 38.1744C100.65 38.269 100.842 38.3162 101.092 38.3162C101.426 38.3162 101.701 38.2356 101.918 38.0744C102.14 37.9131 102.252 37.7102 102.252 37.4656L102.36 38.0827C102.26 38.3774 102.082 38.6053 101.826 38.7665C101.571 38.9222 101.259 39 100.892 39Z" fill="#272727"/>
<path d="M104.277 38.9166V32.9124H105.144V38.9166H104.277Z" fill="#272727"/>
<path d="M110.192 38.9917C109.469 38.9917 108.891 38.8193 108.457 38.4747C108.024 38.13 107.771 37.6379 107.698 36.9986H108.557C108.607 37.4156 108.774 37.7325 109.058 37.9493C109.341 38.1661 109.725 38.2745 110.209 38.2745C110.614 38.2745 110.92 38.1995 111.126 38.0494C111.337 37.8992 111.443 37.6852 111.443 37.4072C111.443 37.157 111.373 36.9597 111.234 36.8151C111.095 36.665 110.876 36.5427 110.576 36.4482L109.533 36.1146C108.999 35.9423 108.607 35.7255 108.357 35.4642C108.107 35.2029 107.982 34.8721 107.982 34.4718C107.982 34.1327 108.065 33.8408 108.232 33.5962C108.405 33.3516 108.644 33.1625 108.949 33.0291C109.261 32.8901 109.622 32.8206 110.033 32.8206C110.667 32.8206 111.173 32.9819 111.551 33.3043C111.935 33.6212 112.154 34.0632 112.21 34.6302H111.351C111.284 34.2522 111.14 33.977 110.917 33.8047C110.695 33.6268 110.389 33.5378 110 33.5378C109.633 33.5378 109.347 33.6101 109.141 33.7546C108.935 33.8992 108.833 34.1021 108.833 34.3634C108.833 34.5747 108.899 34.7526 109.033 34.8971C109.172 35.0361 109.4 35.1556 109.717 35.2557L110.809 35.6059C111.315 35.7672 111.687 35.9868 111.926 36.2647C112.171 36.5427 112.293 36.893 112.293 37.3155C112.293 37.8492 112.11 38.2634 111.743 38.558C111.376 38.8471 110.859 38.9917 110.192 38.9917Z" fill="#272727"/>
<path d="M115.038 39C114.604 39 114.223 38.9055 113.895 38.7165C113.567 38.5219 113.312 38.2578 113.128 37.9243C112.945 37.5851 112.853 37.2015 112.853 36.7734C112.853 36.3398 112.945 35.959 113.128 35.631C113.317 35.3029 113.573 35.0472 113.895 34.8637C114.223 34.6747 114.604 34.5802 115.038 34.5802C115.477 34.5802 115.861 34.6747 116.189 34.8637C116.517 35.0472 116.77 35.3029 116.948 35.631C117.131 35.959 117.223 36.3398 117.223 36.7734C117.223 37.2015 117.131 37.5851 116.948 37.9243C116.77 38.2578 116.517 38.5219 116.189 38.7165C115.861 38.9055 115.477 39 115.038 39ZM115.038 38.2912C115.299 38.2912 115.524 38.2273 115.713 38.0994C115.908 37.9715 116.061 37.7936 116.172 37.5657C116.283 37.3377 116.339 37.0709 116.339 36.7651C116.339 36.3092 116.216 35.9506 115.972 35.6893C115.733 35.4225 115.421 35.2891 115.038 35.2891C114.66 35.2891 114.348 35.4225 114.104 35.6893C113.865 35.9562 113.745 36.3148 113.745 36.7651C113.745 37.0709 113.798 37.3377 113.904 37.5657C114.015 37.7936 114.168 37.9715 114.362 38.0994C114.562 38.2273 114.788 38.2912 115.038 38.2912Z" fill="#272727"/>
<path d="M118.114 38.9166V32.9124H118.981V38.9166H118.114Z" fill="#272727"/>
<path d="M121.583 39C121.299 39 121.049 38.9417 120.832 38.8249C120.615 38.7026 120.446 38.5358 120.323 38.3245C120.207 38.1133 120.148 37.8714 120.148 37.599V34.6636H121.016V37.3989C121.016 37.6935 121.088 37.9131 121.232 38.0577C121.377 38.2022 121.583 38.2745 121.85 38.2745C122.089 38.2745 122.3 38.2189 122.483 38.1077C122.672 37.9965 122.82 37.8436 122.925 37.6491C123.036 37.4489 123.092 37.2182 123.092 36.9569L123.2 37.9743C123.061 38.2856 122.847 38.5358 122.558 38.7248C122.275 38.9083 121.95 39 121.583 39ZM123.125 38.9166V37.9159H123.092V34.6636H123.951V38.9166H123.125Z" fill="#272727"/>
<path d="M126.935 39C126.44 39 126.076 38.8861 125.843 38.6581C125.615 38.4246 125.501 38.0827 125.501 37.6324V33.6879L126.36 33.3627V37.6407C126.36 37.8631 126.418 38.0271 126.535 38.1327C126.651 38.2384 126.84 38.2912 127.102 38.2912C127.202 38.2912 127.291 38.2829 127.369 38.2662C127.446 38.2495 127.513 38.23 127.569 38.2078V38.9083C127.508 38.9361 127.421 38.9583 127.31 38.975C127.199 38.9917 127.074 39 126.935 39ZM124.65 35.3558V34.6636H127.569V35.3558H124.65Z" fill="#272727"/>
<path d="M128.375 38.9166V34.6636H129.242V38.9166H128.375ZM128.333 33.8297V32.854H129.292V33.8297H128.333Z" fill="#272727"/>
<path d="M132.295 39C131.861 39 131.48 38.9055 131.152 38.7165C130.824 38.5219 130.568 38.2578 130.385 37.9243C130.201 37.5851 130.11 37.2015 130.11 36.7734C130.11 36.3398 130.201 35.959 130.385 35.631C130.574 35.3029 130.83 35.0472 131.152 34.8637C131.48 34.6747 131.861 34.5802 132.295 34.5802C132.734 34.5802 133.117 34.6747 133.445 34.8637C133.773 35.0472 134.026 35.3029 134.204 35.631C134.388 35.959 134.479 36.3398 134.479 36.7734C134.479 37.2015 134.388 37.5851 134.204 37.9243C134.026 38.2578 133.773 38.5219 133.445 38.7165C133.117 38.9055 132.734 39 132.295 39ZM132.295 38.2912C132.556 38.2912 132.781 38.2273 132.97 38.0994C133.165 37.9715 133.318 37.7936 133.429 37.5657C133.54 37.3377 133.596 37.0709 133.596 36.7651C133.596 36.3092 133.473 35.9506 133.229 35.6893C132.99 35.4225 132.678 35.2891 132.295 35.2891C131.917 35.2891 131.605 35.4225 131.361 35.6893C131.122 35.9562 131.002 36.3148 131.002 36.7651C131.002 37.0709 131.055 37.3377 131.16 37.5657C131.272 37.7936 131.425 37.9715 131.619 38.0994C131.819 38.2273 132.044 38.2912 132.295 38.2912Z" fill="#272727"/>
<path d="M135.37 38.9166V34.6636H136.196V35.6643H136.238V38.9166H135.37ZM138.389 38.9166V36.1814C138.389 35.8867 138.314 35.6671 138.164 35.5226C138.019 35.378 137.803 35.3057 137.513 35.3057C137.263 35.3057 137.041 35.3613 136.846 35.4725C136.657 35.5837 136.507 35.7366 136.396 35.9312C136.29 36.1258 136.238 36.3565 136.238 36.6233L136.129 35.6059C136.268 35.2891 136.482 35.0389 136.771 34.8554C137.06 34.6719 137.397 34.5802 137.78 34.5802C138.236 34.5802 138.595 34.7081 138.856 34.9638C139.117 35.2196 139.248 35.5587 139.248 35.9812V38.9166H138.389Z" fill="#272727"/>
</svg>
