<svg width="31" height="34" viewBox="0 0 31 34" fill="none" xmlns="http://www.w3.org/2000/svg">
<path d="M15.5 4.6825C17.9105 4.6825 20.2668 5.39728 22.271 6.73646C24.2752 8.07564 25.8373 9.97907 26.7598 12.206C27.6822 14.433 27.9236 16.8835 27.4533 19.2477C26.9831 21.6118 25.8223 23.7834 24.1179 25.4879C22.4134 27.1923 20.2418 28.3531 17.8777 28.8233C15.5135 29.2936 13.063 29.0522 10.836 28.1298C8.60907 27.2073 6.70564 25.6452 5.36646 23.641C4.02728 21.6368 3.31249 19.2805 3.31249 16.87C3.31591 13.6387 4.60104 10.5408 6.8859 8.2559C9.17076 5.97104 12.2687 4.68591 15.5 4.6825ZM7.07773 10.9251L14.5625 15.2458V6.60085C13.0763 6.73711 11.6374 7.19431 10.3452 7.94089C9.05292 8.68747 7.93811 9.70563 7.07773 10.9251ZM16.4375 6.60085V16.3274L24.8621 21.1907C25.5537 19.6917 25.8753 18.0485 25.7999 16.3994C25.7245 14.7503 25.2543 13.1433 24.4287 11.7137C23.6032 10.2841 22.4466 9.07351 21.056 8.1838C19.6654 7.29409 18.0815 6.75123 16.4375 6.60085ZM15.5 27.1825C17.1509 27.1818 18.7776 26.7848 20.2432 26.0248C21.7088 25.2647 22.9705 24.1639 23.9223 22.8149L6.13789 12.5481C5.41265 14.1193 5.09446 15.8478 5.21263 17.5742C5.3308 19.3007 5.88153 20.9696 6.81409 22.4273C7.74664 23.8851 9.03104 25.0847 10.549 25.9157C12.0669 26.7467 13.7695 27.1823 15.5 27.1825Z" fill="white"/>
</svg>
