<svg width="35" height="36" viewBox="0 0 35 36" fill="none" xmlns="http://www.w3.org/2000/svg">
<path d="M19.6176 29.1324H26.2501C26.4089 29.1238 26.5588 29.0562 26.6705 28.943C26.7822 28.8297 26.8476 28.6788 26.8539 28.5199V23.2699C26.8539 23.1005 26.7866 22.938 26.6668 22.8182C26.547 22.6984 26.3845 22.6311 26.2151 22.6311H17.2026C16.9705 22.6311 16.748 22.5389 16.5839 22.3748C16.4198 22.2107 16.3276 21.9882 16.3276 21.7561C16.3276 21.5241 16.4198 21.3015 16.5839 21.1374C16.748 20.9733 16.9705 20.8811 17.2026 20.8811H26.2501C26.334 20.8811 26.417 20.8646 26.4945 20.8325C26.572 20.8004 26.6425 20.7533 26.7018 20.694C26.7611 20.6347 26.8081 20.5643 26.8402 20.4868C26.8723 20.4093 26.8889 20.3263 26.8889 20.2424V15.0449C26.8889 14.961 26.8723 14.8779 26.8402 14.8004C26.8081 14.7229 26.7611 14.6525 26.7018 14.5932C26.6425 14.5339 26.572 14.4868 26.4945 14.4547C26.417 14.4226 26.334 14.4061 26.2501 14.4061H7.28886C7.11945 14.4061 6.95698 14.4734 6.83719 14.5932C6.71741 14.713 6.65011 14.8755 6.65011 15.0449V17.6699C6.65011 17.9019 6.55792 18.1245 6.39383 18.2886C6.22973 18.4527 6.00717 18.5449 5.77511 18.5449C5.54304 18.5449 5.32049 18.4527 5.15639 18.2886C4.9923 18.1245 4.90011 17.9019 4.90011 17.6699V15.0449C4.90549 14.4906 5.10347 13.9554 5.46011 13.5311C5.10214 13.111 4.90384 12.5781 4.90011 12.0261V6.77612C4.90011 6.1449 5.15086 5.53954 5.59719 5.0932C6.04353 4.64687 6.64889 4.39612 7.28011 4.39612H26.2501C26.5627 4.39955 26.8715 4.46451 27.1589 4.58729C27.4464 4.71008 27.7068 4.88828 27.9254 5.11172C28.1439 5.33517 28.3164 5.59948 28.4328 5.88956C28.5492 6.17964 28.6073 6.48982 28.6039 6.80237V12.0524C28.6033 12.6033 28.4081 13.1364 28.0526 13.5574C28.4067 13.9825 28.6017 14.5178 28.6039 15.0711V20.2774C28.5861 20.8293 28.3721 21.3567 28.0001 21.7649C28.3726 22.1796 28.5865 22.7127 28.6039 23.2699V28.5199C28.5971 29.1428 28.3472 29.7385 27.9075 30.1798C27.4678 30.6212 26.873 30.8733 26.2501 30.8824H19.6526C19.4205 30.8824 19.198 30.7902 19.0339 30.6261C18.8698 30.462 18.7776 30.2394 18.7776 30.0074C18.7776 29.7753 18.8698 29.5527 19.0339 29.3886C19.198 29.2246 19.4205 29.1324 19.6526 29.1324H19.6176ZM26.8539 6.80237C26.854 6.63973 26.7912 6.48334 26.6787 6.36592C26.5662 6.2485 26.4126 6.17914 26.2501 6.17237H7.28011C7.11302 6.17237 6.95278 6.23874 6.83463 6.35689C6.71648 6.47504 6.65011 6.63528 6.65011 6.80237V12.0524C6.65011 12.1351 6.6664 12.217 6.69806 12.2935C6.72972 12.3699 6.77613 12.4393 6.83463 12.4978C6.89313 12.5563 6.96258 12.6028 7.03902 12.6344C7.11545 12.6661 7.19737 12.6824 7.28011 12.6824H26.2501C26.3328 12.6824 26.4148 12.6661 26.4912 12.6344C26.5676 12.6028 26.6371 12.5563 26.6956 12.4978C26.7541 12.4393 26.8005 12.3699 26.8322 12.2935C26.8638 12.217 26.8801 12.1351 26.8801 12.0524L26.8539 6.80237Z" fill="white"/>
<path d="M24.3423 10.8711C23.6174 10.8711 23.0298 10.2835 23.0298 9.55859C23.0298 8.83372 23.6174 8.24609 24.3423 8.24609C25.0672 8.24609 25.6548 8.83372 25.6548 9.55859C25.6548 10.2835 25.0672 10.8711 24.3423 10.8711Z" fill="white"/>
<path d="M24.3423 18.9124C23.6174 18.9124 23.0298 18.3247 23.0298 17.5999C23.0298 16.875 23.6174 16.2874 24.3423 16.2874C25.0672 16.2874 25.6548 16.875 25.6548 17.5999C25.6548 18.3247 25.0672 18.9124 24.3423 18.9124Z" fill="white"/>
<path d="M24.3423 26.9274C23.6174 26.9274 23.0298 26.3397 23.0298 25.6149C23.0298 24.89 23.6174 24.3024 24.3423 24.3024C25.0672 24.3024 25.6548 24.89 25.6548 25.6149C25.6548 26.3397 25.0672 26.9274 24.3423 26.9274Z" fill="white"/>
<path d="M9.53739 19.0612C11.3939 19.0612 13.1744 19.7987 14.4871 21.1114C15.7999 22.4242 16.5374 24.2046 16.5374 26.0612C16.5332 26.3273 16.5157 26.593 16.4849 26.8574L17.7799 25.6324C17.9438 25.4694 18.1656 25.378 18.3968 25.378C18.6279 25.378 18.8497 25.4694 19.0136 25.6324C19.0956 25.7137 19.1607 25.8105 19.2052 25.9172C19.2496 26.0238 19.2725 26.1381 19.2725 26.2537C19.2725 26.3692 19.2496 26.4835 19.2052 26.5902C19.1607 26.6968 19.0956 26.7936 19.0136 26.8749L16.1524 29.5962C15.9888 29.7493 15.7727 29.8339 15.5486 29.8324C15.4335 29.8331 15.3193 29.811 15.2127 29.7675C15.1061 29.7239 15.0091 29.6598 14.9274 29.5787L12.1974 26.8574C12.1154 26.7761 12.0503 26.6793 12.0059 26.5727C11.9614 26.466 11.9386 26.3517 11.9386 26.2362C11.9386 26.1206 11.9614 26.0063 12.0059 25.8997C12.0503 25.793 12.1154 25.6962 12.1974 25.6149C12.3613 25.4519 12.5831 25.3605 12.8143 25.3605C13.0454 25.3605 13.2672 25.4519 13.4311 25.6149L14.7174 26.9449C14.7657 26.6556 14.792 26.3631 14.7961 26.0699C14.7961 25.0316 14.4882 24.0165 13.9114 23.1532C13.3345 22.2898 12.5145 21.6169 11.5552 21.2195C10.5959 20.8222 9.54031 20.7182 8.52191 20.9208C7.50351 21.1234 6.56805 21.6234 5.83383 22.3576C5.0996 23.0918 4.59959 24.0273 4.39701 25.0457C4.19444 26.0641 4.29841 27.1197 4.69577 28.079C5.09313 29.0383 5.76604 29.8582 6.62939 30.4351C7.49275 31.012 8.50778 31.3199 9.54614 31.3199C10.0833 31.317 10.617 31.2344 11.1299 31.0749C11.242 31.0285 11.3624 31.0059 11.4837 31.0085C11.605 31.0112 11.7244 31.039 11.8343 31.0903C11.9442 31.1415 12.0423 31.215 12.1223 31.3062C12.2023 31.3974 12.2625 31.5042 12.299 31.6198C12.3356 31.7355 12.3476 31.8575 12.3345 31.9781C12.3214 32.0987 12.2833 32.2152 12.2227 32.3203C12.1622 32.4254 12.0804 32.5167 11.9827 32.5885C11.8849 32.6603 11.7733 32.711 11.6549 32.7374C10.9735 32.957 10.2621 33.0692 9.54614 33.0699C7.68962 33.0699 5.90915 32.3324 4.59639 31.0197C3.28364 29.7069 2.54614 27.9264 2.54614 26.0699C2.54614 24.2134 3.28364 22.4329 4.59639 21.1202C5.90915 19.8074 7.68962 19.0699 9.54614 19.0699L9.53739 19.0612Z" fill="white"/>
</svg>
