<svg width="37" height="38" viewBox="0 0 37 38" fill="none" xmlns="http://www.w3.org/2000/svg">
<path d="M12.2099 27.8016C12.5279 27.8016 12.788 27.5415 12.788 27.2235V25.0902C12.788 24.7722 12.5279 24.5121 12.2099 24.5121C11.892 24.5121 11.6318 24.7722 11.6318 25.0902V27.2235C11.6318 27.5415 11.892 27.8016 12.2099 27.8016ZM12.2099 28.4607C11.8457 28.4607 11.5566 28.7555 11.5566 29.114C11.5566 29.4724 11.8515 29.773 12.2099 29.773C12.5684 29.773 12.8632 29.4782 12.8632 29.114C12.8632 28.7497 12.5684 28.4607 12.2099 28.4607Z" fill="white"/>
<path d="M9.51002 13.2675C9.0715 13.2675 8.65094 13.4417 8.34086 13.7518C8.03078 14.0619 7.85658 14.4825 7.85658 14.921V19.309C6.81596 19.5749 6.02393 20.4768 6.02393 21.6041V28.241C6.02393 29.5707 7.10502 30.6518 8.43471 30.6518H8.5908V33.7216C8.5908 34.7449 9.4233 35.5774 10.4466 35.5774H13.9847C14.8056 35.5774 15.4763 35.034 15.7249 34.2997H28.5766C29.9063 34.2997 30.9874 33.2186 30.9874 31.889V25.2521C30.9874 23.9224 29.9063 22.8413 28.5766 22.8413H28.4956V13.4179C29.1022 13.019 29.6003 12.4759 29.9453 11.8372C30.2904 11.1985 30.4716 10.4843 30.4728 9.75833C30.4728 8.64255 30.0508 7.5788 29.2877 6.76942C28.8714 6.32427 28.3511 6.18552 27.9002 6.38786C27.4145 6.60755 27.1544 7.16833 27.2296 7.84474L27.3452 8.98364C27.3799 9.33052 27.2238 9.59067 27.0792 9.74677C26.5821 10.296 25.5703 10.296 25.0789 9.74677C24.9402 9.59067 24.7783 9.33052 24.813 8.98364L24.9286 7.84474C25.0038 7.10474 24.4372 6.56708 24.0903 6.37052C24.0229 6.33096 23.948 6.3059 23.8704 6.29694C23.7927 6.28798 23.714 6.29532 23.6394 6.31849C23.5585 6.34161 23.1306 6.47458 22.8647 6.76942C22.1016 7.5788 21.6853 8.64255 21.6796 9.76411C21.6796 11.2383 22.4311 12.6085 23.6567 13.4179V18.806C23.3041 18.6152 22.9167 18.4822 22.4716 18.4822C21.35 18.4822 20.6678 19.2511 20.1995 20.0143H18.7138L17.2049 17.1121C16.7308 16.2044 16.0197 14.8343 14.5224 14.8343C14.0772 14.8343 13.6841 14.9672 13.3372 15.158V14.9268C13.3372 14.0133 12.5914 13.2733 11.6838 13.2733H11.175V6.59599H11.2155C11.5335 6.59599 11.7936 6.33583 11.7936 6.01786C11.7936 5.69989 11.5335 5.43974 11.2155 5.43974H11.175V3.78052C11.175 3.46255 10.9149 3.20239 10.5969 3.20239C10.2789 3.20239 10.0188 3.46255 10.0188 3.78052V5.43974H9.9783C9.66033 5.43974 9.40018 5.69989 9.40018 6.01786C9.40018 6.33583 9.66033 6.59599 9.9783 6.59599H10.0188V13.2675H9.51002ZM13.9789 34.4211H10.4408C10.0535 34.4211 9.74127 34.109 9.74127 33.7216V24.2346C9.74127 23.8415 10.0477 23.535 10.4408 23.535H13.9789C14.3721 23.535 14.6785 23.8415 14.6785 24.2346V33.7216C14.6785 34.109 14.3663 34.4211 13.9789 34.4211ZM22.8358 9.75833C22.8358 8.93739 23.148 8.15692 23.7088 7.55567L23.6567 8.86802C23.5931 9.46927 23.7955 10.059 24.2117 10.5215C24.6742 11.036 25.368 11.3424 26.0733 11.3424C26.7786 11.3424 27.4666 11.036 27.9291 10.5215C28.3511 10.0532 28.5477 9.46927 28.4841 8.86224C28.3569 7.62505 28.3453 7.62505 28.3742 7.49786C28.8541 7.90833 29.305 8.81599 29.305 9.75255C29.305 10.9319 28.6575 12.013 27.6285 12.5796C27.4435 12.6836 27.3278 12.8744 27.3278 13.0883V22.8413H26.6456V14.3082C26.6456 13.9902 26.3855 13.73 26.0675 13.73C25.7495 13.73 25.4894 13.9902 25.4894 14.3082V22.8413H24.8072V13.0883C24.8072 12.8802 24.6916 12.6836 24.5066 12.5796C24.0006 12.3019 23.5783 11.8938 23.2835 11.3977C22.9886 10.9015 22.832 10.3355 22.83 9.75833H22.8358ZM22.4716 19.6327C22.8531 19.6327 23.1653 19.7483 23.3735 19.9738C23.5931 20.2108 23.6914 20.5577 23.6625 21.0202V23.4194C23.6625 23.7374 23.9227 23.9975 24.2406 23.9975H28.5708C29.2646 23.9975 29.8253 24.5583 29.8253 25.2521V31.889C29.8253 32.5827 29.2646 33.1435 28.5708 33.1435H15.8347V24.8127H18.6328C18.8467 24.8127 19.0433 24.6913 19.1474 24.5005L20.8181 21.2861C21.3731 20.2166 21.801 19.6327 22.4716 19.6327ZM13.6263 16.3258C13.8344 16.1061 14.1466 15.9847 14.5281 15.9847C15.193 15.9847 15.6266 16.5686 16.1816 17.6382L17.8524 20.8525C17.9506 21.0433 18.1472 21.1647 18.3669 21.1647H19.581L18.286 23.6565H15.7191C15.4705 22.9222 14.7999 22.3788 13.9789 22.3788H10.4408C9.41752 22.3788 8.58502 23.2113 8.58502 24.2346V29.4955H8.42893C7.73518 29.4955 7.17439 28.9347 7.17439 28.241V21.6041C7.17439 20.8988 7.72361 20.3496 8.42893 20.3496H12.7591C13.0771 20.3496 13.3372 20.0894 13.3372 19.7715V17.3086C13.3141 16.8982 13.4066 16.5513 13.6263 16.32V16.3258ZM12.181 14.921V19.1933H9.00705V14.921C9.00705 14.6493 9.23252 14.4238 9.50424 14.4238H11.678C11.9555 14.4238 12.1752 14.6493 12.1752 14.921H12.181Z" fill="white"/>
</svg>
