<svg width="33" height="33" viewBox="0 0 33 33" fill="none" xmlns="http://www.w3.org/2000/svg">
<path d="M9.32016 3.47485H12.0802C12.3152 3.09985 12.7302 2.84985 13.2052 2.84985H20.1152C20.5902 2.84985 21.0052 3.09985 21.2402 3.47485H24.0002C25.1902 3.47485 26.1602 4.44485 26.1602 5.63485V28.0299C26.1602 29.2199 25.1902 30.1899 24.0002 30.1899H9.32016C8.13016 30.1899 7.16016 29.2199 7.16016 28.0299V5.63485C7.16016 4.44485 8.13016 3.47485 9.32016 3.47485ZM20.4452 4.17985C20.4452 3.99985 20.2952 3.84985 20.1152 3.84985H13.2052C13.0252 3.84985 12.8752 3.99985 12.8752 4.17985V6.26985C12.8752 6.44985 13.0252 6.59985 13.2052 6.59985H20.1152C20.2952 6.59985 20.4452 6.44985 20.4452 6.26985V4.17985ZM8.16016 28.0299C8.16016 28.6699 8.68016 29.1899 9.32016 29.1899H24.0002C24.6402 29.1899 25.1602 28.6699 25.1602 28.0299V5.63485C25.1602 4.99485 24.6402 4.47485 24.0002 4.47485H21.4452V6.26985C21.4452 7.00485 20.8502 7.59985 20.1152 7.59985H13.2052C12.4702 7.59985 11.8752 7.00485 11.8752 6.26985V4.47485H9.32016C8.68016 4.47485 8.16016 4.99485 8.16016 5.63485V28.0299Z" fill="white"/>
<path d="M10.18 9.15491H23.355C23.63 9.15491 23.855 9.37991 23.855 9.65491C23.855 9.92991 23.63 10.1549 23.355 10.1549H10.175C9.89998 10.1549 9.67498 9.92991 9.67498 9.65491C9.67498 9.37991 9.89998 9.15491 10.18 9.15491ZM10.18 12.0699H23.355C23.63 12.0699 23.855 12.2949 23.855 12.5699C23.855 12.8449 23.63 13.0699 23.355 13.0699H10.175C9.89998 13.0699 9.67498 12.8449 9.67498 12.5699C9.67498 12.2949 9.89998 12.0699 10.18 12.0699ZM10.18 14.9799H23.355C23.63 14.9799 23.855 15.2049 23.855 15.4799C23.855 15.7549 23.63 15.9799 23.355 15.9799H10.175C9.89998 15.9799 9.67498 15.7549 9.67498 15.4799C9.67498 15.2049 9.89998 14.9799 10.18 14.9799ZM10.18 17.8949H23.355C23.63 17.8949 23.855 18.1199 23.855 18.3949C23.855 18.6699 23.63 18.8949 23.355 18.8949H10.175C9.89998 18.8949 9.67498 18.6699 9.67498 18.3949C9.67498 18.1199 9.89998 17.8949 10.18 17.8949ZM10.18 20.8099H23.355C23.63 20.8099 23.855 21.0349 23.855 21.3099C23.855 21.5849 23.63 21.8099 23.355 21.8099H10.175C9.89998 21.8099 9.67498 21.5849 9.67498 21.3099C9.67498 21.0349 9.89998 20.8099 10.18 20.8099ZM10.18 23.7199H23.355C23.63 23.7199 23.855 23.9449 23.855 24.2199C23.855 24.4949 23.63 24.7199 23.355 24.7199H10.175C9.89998 24.7199 9.67498 24.4949 9.67498 24.2199C9.67498 23.9449 9.89998 23.7199 10.18 23.7199ZM10.18 26.6349H23.355C23.63 26.6349 23.855 26.8599 23.855 27.1349C23.855 27.4099 23.63 27.6349 23.355 27.6349H10.175C9.89998 27.6349 9.67498 27.4099 9.67498 27.1349C9.67498 26.8599 9.89998 26.6349 10.18 26.6349Z" fill="white"/>
</svg>
