<svg width="33" height="33" viewBox="0 0 33 33" fill="none" xmlns="http://www.w3.org/2000/svg">
<path d="M3.34279 4.2699H18.3428C19.4458 4.2699 20.3428 5.1669 20.3428 6.2699V15.3899C21.2543 15.0514 21.9528 14.1359 22.9958 14.2699C19.7248 11.6549 21.5783 6.2739 25.8178 6.2699C30.0578 6.2744 31.9108 11.6559 28.6398 14.2699H29.3178C30.4058 14.2654 31.3278 15.1784 31.3178 16.2699V20.2699C31.3178 20.8214 30.8693 21.2699 30.3178 21.2699H29.3178V22.2699C29.3178 22.6384 29.1153 22.9574 28.8178 23.1309V27.2699C28.8178 28.0969 28.1448 28.7699 27.3178 28.7699H24.3178C23.4908 28.7699 22.8178 28.0969 22.8178 27.2699V23.1309C22.5203 22.9574 22.3178 22.6384 22.3178 22.2699V17.7479C21.6866 18.0964 21.0257 18.3881 20.3428 18.6194V21.2699C20.3428 22.3729 19.4458 23.2699 18.3428 23.2699H11.3428V24.7699C11.3428 24.8009 11.3303 24.8274 11.3253 24.8564C12.9068 25.4014 12.5323 27.7534 10.8428 27.7699C9.15279 27.7534 8.77879 25.4014 10.3603 24.8564C10.3553 24.8274 10.3428 24.8009 10.3428 24.7699V23.2699H3.34279C2.23979 23.2699 1.34279 22.3729 1.34279 21.2699V6.2699C1.34279 5.1669 2.23979 4.2699 3.34279 4.2699ZM29.3178 10.7699C29.3178 8.8399 27.7478 7.2699 25.8178 7.2699C21.1808 7.4459 21.1823 14.0949 25.8178 14.2699C27.7478 14.2699 29.3178 12.6999 29.3178 10.7699ZM23.8178 27.2699C23.8178 27.4025 23.8705 27.5297 23.9642 27.6235C24.058 27.7172 24.1852 27.7699 24.3178 27.7699H24.8178V25.2699C24.8178 25.1373 24.8705 25.0101 24.9642 24.9163C25.058 24.8226 25.1852 24.7699 25.3178 24.7699C25.4504 24.7699 25.5776 24.8226 25.6713 24.9163C25.7651 25.0101 25.8178 25.1373 25.8178 25.2699V27.7699H27.3178C27.4504 27.7699 27.5776 27.7172 27.6713 27.6235C27.7651 27.5297 27.8178 27.4025 27.8178 27.2699V23.2699H23.8178V27.2699ZM19.8163 17.7434C20.78 17.4353 21.6979 16.9988 22.5453 16.4459C22.6207 16.3965 22.708 16.3684 22.7981 16.3647C22.8881 16.361 22.9775 16.3817 23.0567 16.4246C23.1359 16.4676 23.202 16.5312 23.248 16.6087C23.294 16.6863 23.3181 16.7748 23.3178 16.8649V22.2699H28.3178V17.7699C28.3178 17.6373 28.3705 17.5101 28.4642 17.4163C28.558 17.3226 28.6852 17.2699 28.8178 17.2699C28.9504 17.2699 29.0776 17.3226 29.1713 17.4163C29.2651 17.5101 29.3178 17.6373 29.3178 17.7699V20.2699H30.3178V16.2699C30.3278 15.7359 29.8613 15.2699 29.3178 15.2699H22.6678C22.5638 15.2699 22.4613 15.3024 22.3778 15.3624C20.6458 16.5874 18.5493 17.2774 16.4178 17.2699C16.1113 17.2224 15.9193 17.4699 15.6808 17.7299C15.6248 18.0154 15.9058 18.2639 16.2028 18.2699C17.4278 18.2879 18.6473 18.1164 19.8163 17.7434ZM10.3428 26.2699C10.3543 26.9269 11.3313 26.9269 11.3428 26.2699C11.3313 25.6129 10.3543 25.6129 10.3428 26.2699ZM2.34279 21.2699C2.34279 21.8214 2.79129 22.2699 3.34279 22.2699H18.3428C18.8938 22.2699 19.3428 21.8214 19.3428 21.2699V18.9104C18.3858 19.1464 17.4058 19.2699 16.4178 19.2699C15.6918 19.3339 14.9713 18.9164 14.7503 18.2529C14.0798 18.3859 13.4723 17.9339 13.2253 17.6074C12.8503 17.1499 12.5063 17.1499 12.1313 17.6074C11.4613 18.4859 10.2298 18.4849 9.56129 17.6074C9.18579 17.1494 8.84029 17.1504 8.46479 17.6074C7.79879 18.4829 6.55979 18.4859 5.89229 17.6084C5.67129 17.3674 5.57229 17.2699 5.34229 17.2699C4.68829 17.2599 4.68329 16.2809 5.34229 16.2699C6.02129 16.2699 6.37229 16.6529 6.62929 16.9319C6.84929 17.1719 6.94829 17.2699 7.17829 17.2699C7.40829 17.2699 7.50679 17.1724 7.72829 16.9314C7.98429 16.6524 8.33529 16.2699 9.01329 16.2699C9.69129 16.2699 10.0433 16.6529 10.2983 16.9319C10.5188 17.1719 10.6173 17.2699 10.8463 17.2699C11.0753 17.2699 11.1738 17.1724 11.3938 16.9319C11.6498 16.6529 12.0008 16.2699 12.6788 16.2699C13.3568 16.2699 13.7068 16.6529 13.9628 16.9319C14.2358 17.2574 14.4768 17.3714 14.7943 17.1854C15.0403 16.5364 15.7333 16.2104 16.4178 16.2704C17.4178 16.2664 18.4078 16.1179 19.3428 15.7924V6.2699C19.3428 5.7184 18.8938 5.2699 18.3428 5.2699H3.34279C2.79129 5.2699 2.34279 5.7184 2.34279 6.2699V21.2699Z" fill="white"/>
<path d="M5.3427 9.2699C6.0212 9.2699 6.3727 9.6524 6.6292 9.9319C6.8492 10.1719 6.9482 10.2699 7.1782 10.2699C7.4082 10.2699 7.5067 10.1724 7.7282 9.9319C7.9842 9.6524 8.3352 9.2699 9.0132 9.2699C9.6912 9.2699 10.0432 9.6529 10.2982 9.9324C10.6742 10.3899 11.0182 10.3899 11.3937 9.9324C12.0592 9.0554 13.2967 9.0544 13.9627 9.9324C14.3387 10.3904 14.6822 10.3899 15.0577 9.9324C15.3137 9.6524 15.6647 9.2699 16.3427 9.2699C16.9967 9.2799 17.0027 10.2584 16.3427 10.2699C16.1137 10.2699 16.0157 10.3674 15.7952 10.6074C15.5392 10.8874 15.1882 11.2699 14.5102 11.2699C13.8322 11.2699 13.4812 10.8869 13.2252 10.6074C13.0052 10.3674 12.9072 10.2699 12.6787 10.2699C12.4497 10.2699 12.3512 10.3674 12.1312 10.6074C11.8752 10.8874 11.5242 11.2699 10.8462 11.2699C10.1682 11.2699 9.8172 10.8874 9.5612 10.6079C9.1857 10.1494 8.8402 10.1504 8.4647 10.6079C7.8012 11.4824 6.5587 11.4864 5.8922 10.6079C5.6712 10.3679 5.5722 10.2699 5.3422 10.2699C4.6892 10.2599 4.6822 9.2809 5.3422 9.2699H5.3427ZM5.3427 12.7699C6.0212 12.7699 6.3727 13.1524 6.6292 13.4319C6.8492 13.6719 6.9482 13.7699 7.1782 13.7699C7.4082 13.7699 7.5067 13.6724 7.7282 13.4319C7.9842 13.1524 8.3352 12.7699 9.0132 12.7699C9.6912 12.7699 10.0432 13.1529 10.2982 13.4324C10.6742 13.8899 11.0182 13.8899 11.3937 13.4324C12.0592 12.5554 13.2967 12.5544 13.9627 13.4324C14.3387 13.8904 14.6822 13.8899 15.0577 13.4324C15.3137 13.1524 15.6647 12.7699 16.3427 12.7699C16.9967 12.7799 17.0027 13.7584 16.3427 13.7699C16.1137 13.7699 16.0157 13.8674 15.7952 14.1074C15.5392 14.3874 15.1882 14.7699 14.5102 14.7699C13.8322 14.7699 13.4812 14.3869 13.2252 14.1074C13.0052 13.8674 12.9072 13.7699 12.6787 13.7699C12.4497 13.7699 12.3512 13.8674 12.1312 14.1074C11.8752 14.3874 11.5242 14.7699 10.8462 14.7699C10.1682 14.7699 9.8172 14.3869 9.5612 14.1079C9.1857 13.6494 8.8402 13.6504 8.4647 14.1079C7.8012 14.9819 6.5587 14.9869 5.8922 14.1079C5.6712 13.8679 5.5722 13.7699 5.3422 13.7699C4.6892 13.7599 4.6822 12.7809 5.3422 12.7699H5.3427Z" fill="white"/>
</svg>

